<svg xmlns="http://www.w3.org/2000/svg" viewBox="0 0 360 230" width="360" height="230"><g transform="translate(104.0,-12.899999999999999) scale(0.95)"><rect x="48" y="22" width="64" height="8" rx="4" fill="#0E1B2A"/><rect x="76" y="30" width="8" height="40" rx="3" fill="#0E1B2A"/><circle cx="80" cy="71" r="5" fill="#C9A227"/><polygon points="66,74 94,74 97,93 63,93" fill="#C9A227"/><path d="M63 93 C 62 114, 72 136, 80 153 C 88 136, 98 114, 97 93 Z" fill="#0E1B2A"/><polygon points="74,146 86,146 80,157" fill="#C9A227"/></g><g transform="translate(73.67,190) scale(0.62)"><path transform="translate(2,-58)" d="M5.279999999999999 0.0V-13.244H0.5499999999999999V-15.399999999999999H12.386V-13.244H7.656V0.0ZM24.542 0.0V-15.399999999999999H26.918V-8.799999999999999H33.385999999999996V-15.399999999999999H35.762V0.0H33.385999999999996V-6.643999999999999H26.918V0.0ZM48.974 0.0V-15.399999999999999H58.675999999999995V-13.244H51.349999999999994V-8.822H58.059999999999995V-6.6659999999999995H51.349999999999994V-2.1559999999999997H58.785999999999994V0.0Z" fill="#0E1B2A"/><path transform="translate(0,0)" d="M14.136 0.0V-35.96H1.488V-43.4H34.967999999999996V-35.96H22.32V0.0ZM39.048 0.0V-43.4H57.896Q61.988 -43.4 65.026 -41.974000000000004Q68.064 -40.548 69.738 -37.944Q71.412 -35.339999999999996 71.412 -31.806V-31.062Q71.412 -27.156 69.552 -24.738Q67.69200000000001 -22.32 64.964 -21.204V-20.088Q67.444 -19.964 68.80799999999999 -18.383Q70.172 -16.802 70.172 -14.198V0.0H61.988V-13.02Q61.988 -14.508 61.213 -15.437999999999999Q60.438 -16.368 58.64 -16.368H47.232V0.0ZM47.232 -23.808H57.028000000000006Q59.94200000000001 -23.808 61.58500000000001 -25.389Q63.228 -26.97 63.228 -29.573999999999998V-30.194Q63.228 -32.798 61.616 -34.379000000000005Q60.004000000000005 -35.96 57.028000000000006 -35.96H47.232ZM73.756 0.0 85.164 -43.4H99.424L110.832 0.0H102.4L100.044 -9.548H84.544L82.188 0.0ZM86.46600000000001 -17.112H98.122L92.852 -38.254H91.736ZM113.30000000000001 0.0V-7.192H119.004V-36.208H113.30000000000001V-43.4H131.156Q139.898 -43.4 144.45499999999998 -38.967Q149.012 -34.534 149.012 -25.792V-17.608Q149.012 -8.866 144.45499999999998 -4.433Q139.898 0.0 131.156 0.0ZM127.188 -7.4399999999999995H131.28Q136.24 -7.4399999999999995 138.534 -10.044Q140.828 -12.648 140.828 -17.36V-26.04Q140.828 -30.814 138.534 -33.387Q136.24 -35.96 131.28 -35.96H127.188ZM154.33200000000002 0.0V-43.4H182.232V-35.96H162.51600000000002V-25.605999999999998H180.496V-18.166H162.51600000000002V-7.4399999999999995H182.604V0.0ZM202.24600000000004 0.868Q197.22400000000002 0.868 193.38000000000002 -0.9299999999999999Q189.53600000000003 -2.7279999999999998 187.36600000000004 -6.076Q185.19600000000003 -9.424 185.19600000000003 -14.136V-15.872H193.25600000000003V-14.136Q193.25600000000003 -10.23 195.67400000000004 -8.277000000000001Q198.092 -6.324 202.24600000000004 -6.324Q206.46200000000002 -6.324 208.53900000000002 -7.998Q210.616 -9.672 210.616 -12.276Q210.616 -14.074 209.59300000000002 -15.190000000000001Q208.57000000000002 -16.306 206.61700000000002 -17.019Q204.66400000000002 -17.732 201.87400000000002 -18.352L200.44800000000004 -18.662Q195.98400000000004 -19.654 192.79100000000003 -21.173000000000002Q189.598 -22.692 187.89300000000003 -25.172Q186.18800000000002 -27.652 186.18800000000002 -31.62Q186.18800000000002 -35.588 188.079 -38.409Q189.97000000000003 -41.23 193.41100000000003 -42.748999999999995Q196.85200000000003 -44.268 201.502 -44.268Q206.15200000000002 -44.268 209.77900000000002 -42.687Q213.40600000000003 -41.106 215.48300000000003 -37.975Q217.56000000000003 -34.844 217.56000000000003 -30.132V-28.272H209.50000000000003V-30.132Q209.50000000000003 -32.612 208.53900000000004 -34.131Q207.57800000000003 -35.65 205.78000000000003 -36.363Q203.98200000000003 -37.076 201.502 -37.076Q197.782 -37.076 196.01500000000001 -35.681Q194.24800000000002 -34.286 194.24800000000002 -31.868Q194.24800000000002 -30.256 195.08500000000004 -29.14Q195.92200000000003 -28.024 197.596 -27.28Q199.27 -26.536 201.87400000000002 -25.978L203.3 -25.668Q207.95000000000002 -24.676 211.39100000000002 -23.125999999999998Q214.83200000000002 -21.576 216.75400000000002 -19.034Q218.67600000000002 -16.492 218.67600000000002 -12.524Q218.67600000000002 -8.556 216.661 -5.5489999999999995Q214.64600000000002 -2.542 210.95700000000002 -0.837Q207.26800000000003 0.868 202.24600000000004 0.868Z" fill="#0E1B2A"/><path transform="translate(0,0)" d="M237.50000000000003 0.0V-43.4H245.68400000000003V-7.4399999999999995H265.524V0.0ZM266.628 0.0 278.036 -43.4H292.296L303.704 0.0H295.272L292.916 -9.548H277.416L275.06 0.0ZM279.338 -17.112H290.994L285.724 -38.254H284.608ZM306.17199999999997 0.0V-7.192H311.876V-36.208H306.17199999999997V-43.4H328.492Q332.46 -43.4 335.405 -42.067Q338.35 -40.734 339.993 -38.285Q341.63599999999997 -35.836 341.63599999999997 -32.426V-31.806Q341.63599999999997 -28.83 340.52 -26.939Q339.404 -25.048 337.885 -24.025Q336.366 -23.002 335.002 -22.568V-21.451999999999998Q336.366 -21.08 337.97799999999995 -20.057Q339.59 -19.034 340.73699999999997 -17.112Q341.884 -15.19 341.884 -12.09V-11.47Q341.884 -7.874 340.21000000000004 -5.301Q338.536 -2.7279999999999998 335.591 -1.3639999999999999Q332.646 0.0 328.74 0.0ZM320.06 -7.4399999999999995H327.748Q330.414 -7.4399999999999995 332.057 -8.742Q333.7 -10.044 333.7 -12.462V-13.082Q333.7 -15.5 332.08799999999997 -16.802Q330.476 -18.104 327.748 -18.104H320.06ZM320.06 -25.544H327.62399999999997Q330.166 -25.544 331.80899999999997 -26.846Q333.452 -28.148 333.452 -30.442V-31.062Q333.452 -33.418 331.84000000000003 -34.689Q330.228 -35.96 327.62399999999997 -35.96H320.06Z" fill="#C9A227"/></g></svg>